<?xml version="1.0"?>
<svg xmlns="http://www.w3.org/2000/svg" viewBox="0 0 64 64" width="512" height="512"><g id="brain-brain_controller-mind_control-gaming-gamepad" data-name="brain-brain controller-mind control-gaming-gamepad"><path d="M28,10a3.009,3.009,0,0,0-3,3c0,.04.01.07.01.11a5.1,5.1,0,0,1,3.49.56l-1,1.74a2.946,2.946,0,0,0-2.79-.11,2.986,2.986,0,0,0-.02,5.39,2.926,2.926,0,0,0,2.81-.1l1,1.74A5.037,5.037,0,0,1,26,23a5.359,5.359,0,0,1-.99-.1c0,.03-.01.06-.01.1a3,3,0,0,0,6,0V13a2.753,2.753,0,0,0-.09-.73A3,3,0,0,0,28,10Z"/><circle cx="14" cy="26" r="1"/><circle cx="50" cy="26" r="1"/><path d="M51.98,33H38.97a10,10,0,1,1-11.94,0h-20L4.28,44H11a1,1,0,0,1,1,1v4a5,5,0,0,0,5,5h7a1,1,0,0,1,1,1v5H43V50.24a.985.985,0,0,1,.39-.79A21.87,21.87,0,0,0,51.98,33Z"/><circle cx="33" cy="41" r="4"/><path d="M33,49a8,8,0,1,0-8-8A8.011,8.011,0,0,0,33,49Zm0-14a6,6,0,1,1-6,6A6.006,6.006,0,0,1,33,35Z"/><circle cx="14" cy="18" r="1"/><path d="M39.31,15.31a2.926,2.926,0,0,0-2.81.1l-1-1.74a5.039,5.039,0,0,1,3.49-.56c0-.04.01-.07.01-.11a3,3,0,0,0-5.9-.75A2.614,2.614,0,0,0,33,13V23a3,3,0,0,0,6,0c0-.04-.01-.07-.01-.1A5.359,5.359,0,0,1,38,23a5.037,5.037,0,0,1-2.5-.67l1-1.74a2.946,2.946,0,0,0,2.79.11,2.986,2.986,0,0,0,.02-5.39Z"/><path d="M32,4A28.035,28.035,0,0,0,4.02,31H53a1,1,0,0,1,1,1,23.853,23.853,0,0,1-9,18.73V56.8A28,28,0,0,0,32,4Zm9,19a4.941,4.941,0,0,1-.42,2h6.6a3,3,0,1,1,0,2H39v-.03A4.924,4.924,0,0,1,36,28a4.994,4.994,0,0,1-4-2.03A4.994,4.994,0,0,1,28,28a4.924,4.924,0,0,1-3-1.03V27H16.82a3,3,0,1,1,0-2h6.6A4.941,4.941,0,0,1,23,23a5.014,5.014,0,0,1,.09-.95A5.031,5.031,0,0,1,21.11,19H16.82a3,3,0,1,1,0-2h4.29a5.03,5.03,0,0,1,1.99-3.05A4.318,4.318,0,0,1,23,13a4.99,4.99,0,0,1,9-2.98,5,5,0,0,1,8.91,3.93A5.031,5.031,0,0,1,42.89,17h4.29a3,3,0,1,1,0,2H42.89a5.03,5.03,0,0,1-1.99,3.05A4.318,4.318,0,0,1,41,23Z"/><circle cx="50" cy="18" r="1"/></g></svg>
